<svg xmlns="http://www.w3.org/2000/svg" id="undraw_profile_6l1l" width="100%" height="100%" viewBox="0 0 674 484.613"><line id="Line_2" x2="108.415" fill="none" stroke="#3f3d56" stroke-miterlimit="10" stroke-width="1" data-name="Line 2" transform="translate(0 484.113)"/><rect id="Rectangle_27" width="481.335" height="325.897" fill="#f2f2f2" data-name="Rectangle 27" rx="19.398" transform="translate(158.703 83.436)"/><rect id="Rectangle_28" width="481.335" height="325.897" fill="none" stroke="#3f3d56" stroke-miterlimit="10" stroke-width="1" data-name="Rectangle 28" rx="19.398" transform="translate(144.009 62.863)"/><line id="Line_3" x2="481.335" fill="none" stroke="#3f3d56" stroke-miterlimit="10" stroke-width="1" data-name="Line 3" transform="translate(144.009 94.107)"/><rect id="Rectangle_29" width="131.273" height="20.246" fill="#141e7a" data-name="Rectangle 29" opacity=".3" rx="7.093" transform="translate(431.7 167.359)"/><rect id="Rectangle_30" width="181.562" height="16.328" fill="#141e7a" data-name="Rectangle 30" opacity=".3" rx="7.093" transform="translate(406.555 223.526)"/><rect id="Rectangle_31" width="181.562" height="16.328" fill="#141e7a" data-name="Rectangle 31" opacity=".3" rx="7.093" transform="translate(406.555 267.937)"/><rect id="Rectangle_32" width="181.562" height="16.328" fill="#141e7a" data-name="Rectangle 32" opacity=".3" rx="7.093" transform="translate(406.555 312.347)"/><rect id="Rectangle_33" width="131.273" height="20.246" fill="none" stroke="#3f3d56" stroke-miterlimit="10" stroke-width="1" data-name="Rectangle 33" rx="7.093" transform="translate(438.231 160.828)"/><rect id="Rectangle_34" width="181.562" height="16.328" fill="none" stroke="#3f3d56" stroke-miterlimit="10" stroke-width="1" data-name="Rectangle 34" rx="7.093" transform="translate(413.086 216.995)"/><rect id="Rectangle_35" width="181.562" height="16.328" fill="none" stroke="#3f3d56" stroke-miterlimit="10" stroke-width="1" data-name="Rectangle 35" rx="7.093" transform="translate(413.086 261.406)"/><rect id="Rectangle_36" width="181.562" height="16.328" fill="none" stroke="#3f3d56" stroke-miterlimit="10" stroke-width="1" data-name="Rectangle 36" rx="7.093" transform="translate(413.086 305.816)"/><circle id="Ellipse_4" cx="9.797" cy="9.797" r="9.797" fill="#141e7a" data-name="Ellipse 4" opacity=".3" transform="translate(170.786 72.659)"/><circle id="Ellipse_5" cx="9.797" cy="9.797" r="9.797" fill="#141e7a" data-name="Ellipse 5" opacity=".3" transform="translate(198.216 72.659)"/><circle id="Ellipse_6" cx="9.797" cy="9.797" r="9.797" fill="#141e7a" data-name="Ellipse 6" opacity=".3" transform="translate(225.646 72.659)"/><circle id="Ellipse_7" cx="9.797" cy="9.797" r="9.797" fill="none" stroke="#3f3d56" stroke-miterlimit="10" stroke-width="1" data-name="Ellipse 7" transform="translate(174.704 68.741)"/><circle id="Ellipse_8" cx="9.797" cy="9.797" r="9.797" fill="none" stroke="#3f3d56" stroke-miterlimit="10" stroke-width="1" data-name="Ellipse 8" transform="translate(202.135 68.741)"/><circle id="Ellipse_9" cx="9.797" cy="9.797" r="9.797" fill="none" stroke="#3f3d56" stroke-miterlimit="10" stroke-width="1" data-name="Ellipse 9" transform="translate(229.565 68.741)"/><path id="Path_33" fill="#6c1bd6" d="M524.553,618.914a97.381,97.381,0,0,1-1.523-25.053s-8.293-36.434-14.819-39.833l0,0c-.1.129-3.267,4.28-3.669,17.127-.408,13.051-5.029,21.615-5.029,21.615s1.5,16.267.64,26.142Z" data-name="Path 33" transform="translate(-228.467 -243.869)"/><path id="Path_34" fill="#6c1bd6" d="M542.036,298.379H391.526A15.525,15.525,0,0,0,376,313.9V514.7a15.525,15.525,0,0,0,15.525,15.525h52.806c-1.763-7.314-3.956-18.738-1.736-26.681v0c.1-.371.214-.736.337-1.091a41.47,41.47,0,0,0,1.5-15.906,33.053,33.053,0,0,0,0-13.867c-1.631-7.612-2.773-15.09-2.773-15.09s-.9-10.059-.114-16.226c.017-.135.038-.264.057-.4l-.433-.1s2.311-10.468,3.127-17.129c.193-1.573.446-3.566.72-5.692a13.671,13.671,0,0,1-2.216-.562c-7.341-2.583-9.652-25.966-9.652-25.966v-7.409s-2.447-11.351,6.118-16.381c8.247-4.844,11.54-6.169,11.773-6.261.063-.045.124-.086.188-.135a7.224,7.224,0,0,0,2.148-2.765q.017-.28.008-.556c-.139-2.656-1.988-5.071-3.743-7.179l-4.489-5.393a5.272,5.272,0,0,1-1.156-1.871,4.313,4.313,0,0,1-.122-1.178q0-.22,0-.44.037-2.01.109-4.02c.042-1.171.337-2.647,1.483-2.888.6-.125,1.385.093,1.7-.428a1.022,1.022,0,0,0,.076-.693c0,.017,0,.036-.01.053,0-.022-.008-.044-.012-.065a14.656,14.656,0,0,1-.425-2.865,3.816,3.816,0,0,1,.184-1.287c.664-1.943,2.951-2.74,4.971-3.107s4.289-.682,5.557-2.3a17.6,17.6,0,0,1,1.1-1.55,4.329,4.329,0,0,1,2.068-1.043,11.428,11.428,0,0,1,7.515.667,6.622,6.622,0,0,0,3.031.979c1.114-.071,2.065-.854,3.164-1.045,1.776-.308,3.474,1.023,4.349,2.6a6.434,6.434,0,0,1,.805,3.281,4.514,4.514,0,0,1-1.152,3.1c-.764.811-1.9,1.368-2.222,2.436-.129.435-.1.9-.214,1.342-.014.055-.037.106-.056.159.021.027.044.053.065.08a13.866,13.866,0,0,1-6.748,21.565c-.005.138-.011.275-.01.413a5.991,5.991,0,0,0,1.855,4.614l12.113,4.967s7.292-.884,9.924,10a18.827,18.827,0,0,1,.451,5.524,16.478,16.478,0,0,0,2,8.268c2.991,5.982,2.311,19.712-3.807,21.072-5.794,1.288-8.049.747-8.271.686l-.013.24c.1,2.576,1.013,24.8,4.342,27.486.921.744.745,1.246-.011,1.584l0,0s.006.143.02.4c.1,1.625.614,7.814,2.843,11.336,2.584,4.078,2.312,27.6,2.312,27.6l1.766,13.867s-1.087,8.565,0,10.059c.618.848,1.365,13.979,1.9,25.19h45.41A15.525,15.525,0,0,0,557.562,514.7V313.9a15.525,15.525,0,0,0-15.526-15.526Z" data-name="Path 34" transform="translate(-185.621 -155.185)"/><rect id="Rectangle_37" width="181.562" height="231.851" fill="none" stroke="#3f3d56" stroke-miterlimit="10" stroke-width="1" data-name="Rectangle 37" rx="23.772" transform="translate(174.704 125.561)"/><path id="Path_35" fill="#2f2e41" d="M181.225,400.356s-6.09-1.8-7.4.159,1.781,16.163,1.781,16.163l13.419.815-4.683-11.825Z" data-name="Path 35" transform="translate(-115.376 -190.299)"/><path id="Path_36" fill="#a0616a" d="M108,579.347s12.21,26.8,2.807,25.963-13.052-25.963-13.052-25.963Z" data-name="Path 36" transform="translate(-89.099 -252.653)"/><path id="Path_37" fill="#a0616a" d="M234.864,573.753s-5.356,28.963,3.563,25.87,6.377-28.35,6.377-28.35Z" data-name="Path 37" transform="translate(-136.108 -249.852)"/><path id="Path_38" fill="#a0616a" d="M167.333,387.857s-.14,13.473,5.052,14.174-2.947,7.859-2.947,7.859l-9.262,1.824-13.332-.982-5.894-7.578s10.385-4.912,5.894-20.209Z" data-name="Path 38" transform="translate(-104.082 -184.521)"/><path id="Path_39" d="M167.333,387.857s-.14,13.473,5.052,14.174-2.947,7.859-2.947,7.859l-9.262,1.824-13.332-.982-5.894-7.578s10.385-4.912,5.894-20.209Z" data-name="Path 39" opacity=".1" transform="translate(-104.082 -184.521)"/><path id="Path_40" fill="#2f2e41" d="M185.872,564.937s6.6,14.174,1.4,58.662c0,0,1.544,15.718.281,18.665s-11.648,42.944-11.648,42.944-13.332,2.947-15.157-5.894c0,0,1.824-12.631,1.684-14.6s2.947-23.437,2.947-23.437l-6.315-41.54L154.3,637.211s0,10.806-1.544,13.192,0,50.382,0,50.382,4.351,7.3-2.245,7.438-12.49-.14-13.052-4.772-.842-9.262-2.245-12.069-3.228-34.944-2.807-46.172-9.262-68.907-6.175-74.941S185.872,564.937,185.872,564.937Z" data-name="Path 40" transform="translate(-98.764 -247.645)"/><circle id="Ellipse_10" cx="16.841" cy="16.841" r="16.841" fill="#a0616a" data-name="Ellipse 10" transform="translate(39.253 174.707)"/><path id="Path_41" fill="#f2f2f2" d="M139.98,411.783s10.245,7.578,25.121,1.544c0,0,4.912-2.386,4.491-6.035s10.245,29.331,10.245,29.331l10.806,57.4-.561,23.437s-4.772-2.386-19.648,2.947-39.155-6.035-39.155-6.035l.842-60.206.842-35.085,2.245-7.719S136.331,409.257,139.98,411.783Z" data-name="Path 41" transform="translate(-100.728 -192.869)"/><path id="Path_42" fill="#2f2e41" d="M182.063,399.886s2.479-.4,4.865,3.386,8,6.175,8,6.175,13.613.842,15.578,8.14,6.877,17.262,9.262,35.646,7.157,47.715,7.859,50.1-.982,9.683.982,11.929-13.894,2.245-13.894,2.245S213.312,506,212.329,506s-.7,7.719.281,13.332-7.157,0-7.157,0-6.315-25.682-12.35-48.838-9.543-35.927-8.42-41.119,4.21-20.068,1.965-21.472S182.063,399.886,182.063,399.886Z" data-name="Path 42" transform="translate(-118.345 -190.394)"/><path id="Path_43" fill="#2f2e41" d="M129.735,399.874a152.881,152.881,0,0,0-12.929,8.591c-9.262,6.6-15.578,11.648-15.578,11.648s-3.649,2.807-5.894,19.507-7.3,59.925-5.333,65.4,2.666,8.7,1.965,11.929,14.736,3.087,15.016,2.386-.421-13.473.281-13.753,4.491,7.578,5.193,14.174,8.841,11.788,10.666,11.788,11.227-38.032,11.367-63.995-3.087-47.856-5.473-50.943S129.735,399.874,129.735,399.874Z" data-name="Path 43" transform="translate(-86.254 -190.393)"/><path id="Path_44" fill="#3f3d56" d="M182.235,742.655s1.123-3.087,5.052-2.105,6.6-2.526,6.6-2.526,2.105-.281.7,2.386-2.526,4.491-2.526,4.491,8.42,19.226,2.947,23.858a11.735,11.735,0,0,1-11.788,1.824s-6.175-4.351-5.894-15.858c0,0-.281-3.649-3.649-9.543s-5.894-14.876-1.824-16.56,5.117-1.747,5.117-1.747-1.9,8.711,3.015,11.754Z" data-name="Path 44" transform="translate(-114.073 -303.83)"/><path id="Path_45" fill="#3f3d56" d="M146.727,780.346s-3.368-6.315,2.245-7.017,11.648-1.123,11.367,1.824-.982,7.438-.982,7.438l.982,3.228s.281,8,1.263,8.982,6.315,9.4-5.052,9.4-14.736-1.263-13.753-3.93,1.263-15.858,1.263-15.858Z" data-name="Path 45" transform="translate(-104.667 -319.768)"/><path id="Path_46" fill="#2f2e41" d="M149.972,345.038s7.859,2.105,11.929,2.947,3.649-1.544,3.649-1.544,5.333.7,5.052.14,2.245-3.508-.7-6.877-2.105-5.894-2.105-5.894h-2.526l-.7-.982h-3.93s-2.947-1.123-10.666,0-18.244,1.4-19.086,6.035-5.193,10.385-3.649,13.051,10.385,13.613,11.227,18.244,4.774,5.66,4.632,2.76-4.071-13-.7-13.426S151.516,350.511,149.972,345.038Z" data-name="Path 46" transform="translate(-99.211 -166.962)"/><path id="Path_47" fill="none" stroke="#3f3d56" stroke-miterlimit="10" stroke-width="1" d="M1011.911,86.584a15.01,15.01,0,0,0-12.938,9.046c-3.235,7.82.93,17.006,7.183,22.709s14.286,8.962,21.584,13.246c9.8,5.755,18.611,13.743,23.516,24s5.427,22.957-.339,32.753c-5.351,9.093-15.082,14.535-24.362,19.554" data-name="Path 47" transform="translate(-401.34 -81.713)"/><ellipse id="Ellipse_11" cx="11.429" cy="5.551" fill="#6c1bd6" data-name="Ellipse 11" rx="11.429" ry="5.551" transform="translate(607.384)"/><ellipse id="Ellipse_12" cx="11.429" cy="5.551" fill="#6c1bd6" data-name="Ellipse 12" rx="11.429" ry="5.551" transform="translate(616.527 36.574)"/><ellipse id="Ellipse_13" cx="11.429" cy="5.551" fill="#6c1bd6" data-name="Ellipse 13" rx="11.429" ry="5.551" transform="translate(595.628 42.452)"/><ellipse id="Ellipse_14" cx="11.429" cy="5.551" fill="#6c1bd6" data-name="Ellipse 14" rx="11.429" ry="5.551" transform="translate(628.283 73.147)"/><ellipse id="Ellipse_15" cx="11.429" cy="5.551" fill="#6c1bd6" data-name="Ellipse 15" rx="11.429" ry="5.551" transform="translate(651.141 73.147)"/></svg>
